<svg width="512" height="512" viewBox="0 0 512 512" fill="none" xmlns="http://www.w3.org/2000/svg">
  <!-- Background Circle -->
  <circle cx="256" cy="256" r="240" fill="#f8f9fa" stroke="#e9ecef" stroke-width="2" />
  
  <!-- Analytics Graph Elements -->
  <rect x="96" y="320" width="64" height="96" rx="8" fill="#4361ee" opacity="0.9" />
  <rect x="176" y="256" width="64" height="160" rx="8" fill="#3a0ca3" opacity="0.8" />
  <rect x="256" y="192" width="64" height="224" rx="8" fill="#7209b7" opacity="0.7" />
  <rect x="336" y="128" width="64" height="288" rx="8" fill="#f72585" opacity="0.6" />
  
  <!-- Grid Lines -->
  <line x1="96" y1="128" x2="96" y2="416" stroke="#dee2e6" stroke-width="2" stroke-dasharray="4 4" />
  <line x1="96" y1="416" x2="400" y2="416" stroke="#dee2e6" stroke-width="2" />
  <line x1="96" y1="352" x2="400" y2="352" stroke="#dee2e6" stroke-width="1" stroke-dasharray="4 4" />
  <line x1="96" y1="288" x2="400" y2="288" stroke="#dee2e6" stroke-width="1" stroke-dasharray="4 4" />
  <line x1="96" y1="224" x2="400" y2="224" stroke="#dee2e6" stroke-width="1" stroke-dasharray="4 4" />
  <line x1="96" y1="160" x2="400" y2="160" stroke="#dee2e6" stroke-width="1" stroke-dasharray="4 4" />
  
  <!-- Line Chart -->
  <path d="M96 256 L160 224 L224 288 L288 160 L352 192 L400 128" stroke="#4cc9f0" stroke-width="4" fill="none" stroke-linecap="round" stroke-linejoin="round" />
  
  <!-- Data Points -->
  <circle cx="96" cy="256" r="8" fill="#4cc9f0" />
  <circle cx="160" cy="224" r="8" fill="#4cc9f0" />
  <circle cx="224" cy="288" r="8" fill="#4cc9f0" />
  <circle cx="288" cy="160" r="8" fill="#4cc9f0" />
  <circle cx="352" cy="192" r="8" fill="#4cc9f0" />
  <circle cx="400" cy="128" r="8" fill="#4cc9f0" />
  
  <!-- Decorative Elements -->
  <circle cx="256" cy="256" r="180" fill="none" stroke="#e9ecef" stroke-width="8" stroke-dasharray="12 12" />
  
  <!-- Knowledge Hub Text -->
  <path d="M256 64 L256 96" stroke="#6c757d" stroke-width="4" stroke-linecap="round" />
  <path d="M256 416 L256 448" stroke="#6c757d" stroke-width="4" stroke-linecap="round" />
  <path d="M64 256 L96 256" stroke="#6c757d" stroke-width="4" stroke-linecap="round" />
  <path d="M416 256 L448 256" stroke="#6c757d" stroke-width="4" stroke-linecap="round" />
</svg> 